PathFileType	4	(X/Y/Z)	OpenSim_Sub08_CSStiffKnee_Accel.trc
DataRate	CameraRate	NumFrames	NumMarkers	Units	OrigDataRate	OrigDataStartFrame	OrigNumFrames
100	100	27	8	m	100	2642	5282
Frame#	Time	torso_imu_offset_imu	pelvis_imu_offset_imu	tibia_r_imu_offset_imu	femur_r_imu_offset_imu	tibia_l_imu_offset_imu	femur_l_imu_offset_imu	toes_r_imu_offset_imu	toes_l_imu_offset_imu
				X1	Y1	Z1	X2	Y2	Z2	X3	Y3	Z3	X4	Y4	Z4	X5	Y5	Z5	X6	Y6	Z6	X7	Y7	Z7	X8		Y8	Z8	

2642	26.41000000	9.43929007	-0.75097334	5.05122729	9.47880292	0.59584369	1.88697213	10.74776470	-1.36821198	-0.24081538	9.21337989	-2.26171268	-0.73754848	7.46322968	0.76342117	-2.22621221	8.43092783	0.73017559	2.71668489	4.57885474	-1.24753150	9.52164602	16.87629233	-3.40181828	-12.11577566
2643	26.42000000	9.36011983	-0.65154501	5.19497434	9.72481999	1.08238068	2.06789936	11.04961638	-1.72888154	0.40785150	9.77097264	-2.22061607	-0.67487046	8.01710868	1.40630347	-2.29580339	6.78809554	0.41425662	1.90832773	4.56067116	-1.50554782	9.41395746	10.98945190	1.09542187	-9.80857545
2644	26.43000000	9.52161609	-0.47841026	5.46589948	9.98738713	1.66473323	2.65169069	12.03876739	-1.56798249	1.35075600	10.61044929	-2.34017777	-0.58001031	8.57760036	2.09710994	-0.71027423	5.75080912	1.07377269	1.03338629	4.69471010	-0.94247997	9.55290763	7.24945170	0.09708843	15.56337473
2645	26.44000000	10.14012318	-0.31212184	5.99218210	10.31728873	2.09758205	3.87152624	13.02944392	-1.54699063	2.85656376	11.12685932	-2.60850033	-0.30392642	10.23600201	-2.97396772	0.42343895	6.43709061	2.04738677	0.63017534	4.31027130	-0.24362568	10.17952090	1.83149631	4.75385964	19.96851305
2646	26.45000000	11.29317280	-0.16225376	6.40668498	10.65228407	1.78715559	4.95759083	13.21032693	-1.17806137	3.41560696	11.52224829	-2.89772889	0.21644337	12.95826047	-1.60815506	2.83583806	9.74760405	2.42970050	2.07731498	4.03922071	-0.74993280	10.22288629	-7.67208593	12.34264937	11.95725095
2647	26.46000000	12.22384723	-0.04827726	6.35518284	11.60131374	0.80885424	5.76228857	13.36509161	-0.21282201	3.86448016	11.89664563	-3.33955774	0.64084619	16.24462138	10.11537809	8.17042894	14.93499393	3.37864547	2.72806300	2.97249797	-0.95890849	10.81688458	9.36977293	1.92205526	16.13144967
2648	26.47000000	12.39244990	0.03497306	6.44765653	12.58030611	-0.50825003	6.96250102	13.68026063	0.35869140	4.39487702	12.03834617	-3.19056342	1.27063037	17.99228027	14.17664382	8.41195006	18.53334448	5.15655474	1.33595139	2.26581153	-1.71990163	10.90004528	21.69953447	-5.31299440	18.86416101
2649	26.48000000	12.60797291	0.21467654	6.67615130	13.40114482	-2.30830599	7.82594036	14.14961226	0.33248814	3.80567112	12.11172381	-1.98906622	1.84241522	17.76456216	8.67926325	5.42148306	18.90215464	6.84085280	2.19664208	2.55843780	-1.89190286	10.64415680	18.08177645	-7.64952627	16.75598267
2650	26.49000000	13.10834708	0.52609316	6.66356227	13.79603374	-4.32737063	7.94158479	14.25382221	-0.68441997	3.20487224	12.13574635	-0.68231283	1.95485288	15.12929098	-1.74569034	2.26566957	16.40310933	9.35074592	4.33347418	2.88838016	-2.49452992	10.00078465	13.27981236	-1.51591065	12.58367082
2651	26.50000000	13.06571738	0.84556844	6.54209136	12.36389771	-4.54146148	7.61557822	13.79829776	-2.56252253	2.53782581	11.93134594	0.23449554	1.99066899	10.31144304	-12.19185290	-1.15218946	10.75166741	12.44864189	1.84989456	3.92111294	-3.88430619	10.02052912	10.67620588	5.69419425	12.62006504
2652	26.51000000	11.97982963	1.27148433	6.25521080	10.24429241	-2.59427432	6.81951659	13.35484661	-4.89825616	1.24379528	11.28970379	0.84675319	1.94998464	5.78851759	-15.00620118	-2.58768809	6.91081354	9.67081728	-1.47252968	6.00634733	-3.79950181	10.63551025	7.65864551	-1.29904009	10.24764164
2653	26.52000000	10.77416284	1.65755073	5.86935693	8.85745751	-0.28178463	6.17019781	12.41527993	-7.12717619	-0.09880680	10.64012316	1.45573310	2.12171458	4.28412596	-11.07001101	-3.17500231	6.53271718	-0.34913526	-1.28469120	7.34692622	-4.75306644	9.80950762	10.07776570	0.20769247	12.44489789
2654	26.53000000	10.07591202	1.62672438	5.61883011	8.08217568	1.59317733	5.77007905	10.81819504	-7.24522932	-2.09910621	10.18245793	2.02433180	2.46978266	6.97318456	-5.29016566	-4.23548206	7.75566226	-8.05535038	-1.36332038	9.93003614	-5.89099957	9.36803177	13.91597469	9.14562045	15.78023131
2655	26.54000000	9.60133484	1.40882286	5.44569839	7.68928054	2.86800754	5.35053536	9.55467092	-4.96009965	-3.71275312	9.71261024	2.39834383	2.80059389	10.89162592	-3.18627247	-7.29641245	8.95001655	-8.76134947	-3.81015254	11.57186933	-5.36685402	11.20197218	7.05134655	2.76282996	11.70823674
2656	26.55000000	9.44197761	1.47165729	5.44858220	7.60309942	3.36444075	5.22212152	9.00157842	-1.70706233	-4.45319294	9.71534697	2.86521402	3.12838489	11.89408152	-6.29624820	-8.20686450	9.41592390	-4.60589838	-5.68721770	14.73948453	-1.05891784	12.91713127	7.07663113	0.28516168	10.70321922
2657	26.56000000	9.55468646	1.73573297	5.58431742	8.10745654	2.76308570	5.30870508	8.93856853	3.11870371	-4.60129950	10.55579200	2.96932520	3.01995769	10.83883438	-7.58953985	-3.60932117	10.40047933	0.57712336	-5.48533716	8.43237479	0.80675663	16.55165360	9.41855132	4.38616155	11.38884925
2658	26.57000000	9.69989519	1.93259258	5.73396010	9.16649967	1.02914558	5.38317705	9.16662208	9.78066138	-4.38782879	11.56475629	2.39462166	2.49482586	9.36561885	-4.80403654	0.42823782	11.02775028	3.89175271	-4.05519393	2.45075391	-10.13396570	16.82014869	6.47630147	0.55098560	11.11236240
2659	26.58000000	9.83426791	1.92373085	5.81304141	10.27025390	-1.27093616	5.63375220	9.70120878	16.35314489	-2.68549607	11.97951348	1.62027367	2.09100523	8.87366446	-1.94308764	1.58452925	10.98478155	4.84888306	-2.56067125	2.33033830	-17.03454698	16.00606762	6.07428129	-0.31427497	11.26993603
2660	26.59000000	9.72402668	1.78950290	5.90354699	10.80413262	-3.36059157	5.74483613	7.55484481	18.39010842	-1.96887969	12.16573853	1.24623418	2.51358595	10.18646618	-0.23504630	1.48911891	10.63340589	3.73533091	-2.32438456	-5.81025212	-7.04270488	16.15318369	6.23018760	-0.37166999	11.08989386
2661	26.60000000	9.48916350	1.55470082	5.88024138	10.70626938	-4.60972020	5.52118541	4.44449098	14.51982192	-0.90213867	12.26111790	1.40177549	3.26613233	11.21898996	-1.09806992	0.88027135	10.79370800	1.95701666	-2.25701576	-5.95979883	-3.48442485	14.03505336	6.07401943	-0.03298170	10.98902816
2662	26.61000000	9.31057745	1.17036397	5.72612875	10.11099025	-4.72621214	5.08445860	3.90835679	8.07878438	0.70247838	11.47884136	1.31342648	3.82654699	10.64982524	-3.46603588	-0.37219470	10.64460823	1.22119181	-1.57594276	-2.68626531	-7.50479045	13.15516475	5.61040181	0.69725868	11.13251902
2663	26.62000000	9.01127595	0.85029007	5.64022312	9.18436561	-3.93158850	4.69669381	3.80684938	3.17706019	0.59206501	10.14855729	1.23770109	4.16803797	9.24933757	-5.45526192	-1.23269394	9.71941445	0.92577421	-0.84587006	-3.41986632	-7.78452734	10.69668838	5.27055372	1.16160672	11.08856465
2664	26.63000000	8.61612474	0.69392438	5.59678326	8.44497882	-2.78118400	4.73680341	3.72007694	-0.11448213	1.50300832	9.35991474	1.48763768	4.03134064	8.43602436	-4.93220670	-1.00827816	8.56751298	0.32176998	-0.71390389	-3.18814005	-8.67966330	8.45056361	5.44519445	1.72116204	10.78384778
2665	26.64000000	8.43524584	0.60950404	5.51927483	7.99801699	-1.63574838	5.02835106	4.31536425	-2.68318104	2.44298145	9.25440938	1.45975746	3.91736684	8.86670711	-2.20423302	-0.79811053	8.22068414	-0.28244462	-0.80397364	0.04670978	-8.01546783	7.86967881	5.60006548	1.36573035	10.50987363
2666	26.65000000	8.42586192	0.56798095	5.45494554	7.63279971	-0.54037072	5.27614559	5.63323882	-2.79468559	3.02842477	9.40893100	1.07329512	4.03361875	9.52876444	-0.37649298	-0.58016408	8.60421521	-0.30784114	-0.76402116	3.16148858	-7.29321487	7.21259392	5.68695562	1.21613892	10.71463597
2667	26.66000000	8.36428613	0.60956678	5.39855727	7.40425793	0.22076214	5.33345220	7.76924347	-1.35740971	2.55190210	9.42847239	0.85291967	4.07448580	9.78524112	-0.10285195	-0.70060628	9.56738013	0.10418166	-0.82951057	3.46700667	-6.44163267	5.94705940	5.19559103	1.27744571	10.85702037
2668	26.67000000	8.25948970	0.53777068	5.30030577	7.28610046	0.49784517	5.28375274	10.50543343	0.51800482	1.50739295	9.20355520	0.98966795	4.01952629	10.02138320	-0.51985684	-0.90218068	10.03002201	0.33233023	-1.17529004	3.77154150	-5.64388631	5.12593811	5.60787475	1.41466224	10.78946204
